# xmcd
#
# Track frame offsets:
#	150
#	16812
#	35485
#	54549
#	71848
#	93229
#	115494
#	147290
#	168957
#	206159
#	227526
#	252839
#	269701
#	288870
#
# Disc length: 4063 seconds
#
# Revision: 1
# Processed by: cddbd v1.5.1PL0 Copyright (c) Steve Scherf et al.
# Submitted via: audiograbber 1.83.01
#
DISCID=cb0fdd0e
DTITLE=The Booze Brothers - Live...with the Wolf Island Horns!
DYEAR=2004
DGENRE=Blues/Rock
TTITLE0=J:s Blues
TTITLE1=It Ain't Me
TTITLE2=Love That Women
TTITLE3=Rollin' Man
TTITLE4=Evil Hearted Woman
TTITLE5=I'm Tore Down
TTITLE6=Too Much Woman
TTITLE7=Blues For Baby
TTITLE8=Brand New Lover
TTITLE9=Talk to Your Daughter
TTITLE10=When it Comes to Love
TTITLE11=Down Town Tales
TTITLE12=SAouthbound
TTITLE13=Devil By the Tail
EXTD=
EXTT0=
EXTT1=
EXTT2=
EXTT3=
EXTT4=
EXTT5=
EXTT6=
EXTT7=
EXTT8=
EXTT9=
EXTT10=
EXTT11=
EXTT12=
EXTT13=
PLAYORDER=
